<svg width="182" height="40" viewBox="0 0 182 40" fill="none" xmlns="http://www.w3.org/2000/svg">
<path d="M161.45 21.33C160.71 21.33 160.12 20.73 160.12 20C160.12 19.27 160.72 18.67 161.45 18.67C162.18 18.67 162.78 19.27 162.78 20C162.78 20.73 162.18 21.33 161.45 21.33ZM181.44 18.67H164.66L176.53 6.8L174.64 4.91L162.77 16.78V0H160.1V16.78L148.23 4.91L146.34 6.8L158.21 18.67H141.43V21.34H158.21L146.34 33.21L148.23 35.1L160.1 23.23V40.01H162.77V23.23L174.64 35.1L176.53 33.21L164.66 21.34H181.44V18.67ZM111.1 4.28H113.82V14.46C113.82 15.43 113.82 16.17 113.74 17.96H113.82C114.83 15.16 117.28 12.79 121.09 12.79C125.6 12.79 128.4 16.02 128.4 21.14V34.62H125.68V21.91C125.68 17.17 123.54 15.19 120.43 15.19C117.01 15.19 113.82 17.56 113.82 22.88V34.62H111.1V4.27V4.28ZM88.32 23.94C88.32 17.22 92.21 12.79 98.77 12.79C104.52 12.79 107.75 16.37 108.45 20.8L105.65 21.42C105.42 18.04 103.01 15.12 98.77 15.12C94.07 15.12 91.15 18.77 91.15 23.94C91.15 29.38 94.49 32.76 98.77 32.76C103.05 32.76 105.26 29.53 105.65 26.89L108.41 27.51C107.63 31.59 104.29 35.09 98.77 35.09C92.51 35.09 88.32 30.7 88.32 23.94ZM83.23 22.43C83.19 18.19 80.55 15.12 76.2 15.12C71.85 15.12 69.13 18.35 68.82 22.43H83.24H83.23ZM65.86 23.94C65.86 17.06 70.06 12.79 76.12 12.79C81.99 12.79 86.11 16.79 86.11 22.97V24.76H68.78C68.94 29.46 71.77 32.76 76.2 32.76C79.5 32.76 82.07 30.93 82.96 28.06L85.76 28.68C84.63 32.45 80.98 35.09 76.2 35.09C69.98 35.09 65.86 30.66 65.86 23.94ZM55.33 29.62V15.67H50.78V13.26H55.33V7.43H58.05V13.26H64.93V15.67H58.05V29.5C58.05 31.37 58.94 32.22 60.73 32.22H65.12V34.63H60.34C57.04 34.63 55.33 32.88 55.33 29.62ZM45.31 4.28H48.03V34.63H45.31V4.28ZM29.53 32.77C33.26 32.77 36.87 30.32 36.87 24.8V21.92H36.79C36.13 23.44 34.69 24.25 32.09 24.25H29.88C26.11 24.25 24.75 26.23 24.75 28.49C24.75 30.75 26.15 32.76 29.53 32.76V32.77ZM21.88 28.49C21.88 24.14 25.22 21.92 29.81 21.92H33.15C35.71 21.92 36.88 20.95 36.88 19.12C36.88 16.56 34.59 15.12 31.56 15.12C28.14 15.12 25.69 16.91 25.42 20.17L22.7 19.55C23.32 15.31 26.47 12.79 31.56 12.79C37 12.79 39.6 15.67 39.6 19.71V30.75C39.6 31.8 40.03 32.23 41 32.23H41.85V34.64H40.06C38.16 34.64 36.99 33.51 36.99 31.65V29.55H36.91C35.67 33.28 32.64 35.11 29.02 35.11C24.94 35.11 21.87 32.74 21.87 28.5L21.88 28.49ZM0 7.43H3.03L8.94 24.1C9.79 26.55 10.69 29.04 11.54 31.44H11.58C12.43 29.03 13.33 26.54 14.18 24.1L20.09 7.43H23.12L13.02 34.63H10.11L0.0100021 7.43H0Z" fill="white"/>
</svg>